<svg xmlns="http://www.w3.org/2000/svg" width="81.537" height="62.82" viewBox="0 0 81.537 62.82">
    <defs>
        <style>
            .cls-1{opacity:.2}.cls-2{fill:#d39400}
        </style>
    </defs>
    <g id="gold-bars" class="cls-1" transform="rotate(14.98 280.895 81.203)">
        <path id="Path_37" d="M72.121 172.743l-1.576-9.674a3.434 3.434 0 0 0-3.374-2.925H60.09a3.568 3.568 0 0 0 .213-1.912l-1.576-9.674a3.434 3.434 0 0 0-3.374-2.925h-7.08a3.568 3.568 0 0 0 .213-1.912l-1.576-9.674a3.434 3.434 0 0 0-3.374-2.925h-14.9a3.434 3.434 0 0 0-3.374 2.925l-1.576 9.674a3.568 3.568 0 0 0 .213 1.912h-7.085a3.434 3.434 0 0 0-3.374 2.925l-.065.4a1.079 1.079 0 0 0 .869 1.245 1.06 1.06 0 0 0 1.217-.889l.065-.4a1.312 1.312 0 0 1 1.289-1.117h14.9a1.311 1.311 0 0 1 1.289 1.117l1.576 9.674a1.356 1.356 0 0 1-.292 1.084 1.275 1.275 0 0 1-1 .473H15.239a1.276 1.276 0 0 1-1-.473 1.357 1.357 0 0 1-.292-1.084l.723-4.44a1.079 1.079 0 0 0-.87-1.248 1.06 1.06 0 0 0-1.217.889l-.723 4.44a3.571 3.571 0 0 0 .213 1.912H5a3.434 3.434 0 0 0-3.374 2.925l-1.579 9.677a3.552 3.552 0 0 0 .764 2.838 3.383 3.383 0 0 0 2.61 1.238h18.055a3.383 3.383 0 0 0 2.61-1.238c.064-.077.123-.158.18-.239.057.082.116.162.18.239a3.383 3.383 0 0 0 2.61 1.238h18.056a3.383 3.383 0 0 0 2.61-1.238c.064-.077.123-.158.18-.239.057.082.116.162.18.239a3.383 3.383 0 0 0 2.61 1.238h18.055a3.383 3.383 0 0 0 2.61-1.238 3.552 3.552 0 0 0 .764-2.838zm-15.479-23.83l1.576 9.674a1.357 1.357 0 0 1-.292 1.084 1.275 1.275 0 0 1-1 .473H38.874a1.275 1.275 0 0 1-1-.473 1.356 1.356 0 0 1-.292-1.084l1.576-9.674a1.311 1.311 0 0 1 1.292-1.113h14.9a1.312 1.312 0 0 1 1.292 1.113zm-29.586-3.281a1.292 1.292 0 0 1-1-.473 1.338 1.338 0 0 1-.292-1.084l1.576-9.674a1.311 1.311 0 0 1 1.289-1.117h14.9a1.311 1.311 0 0 1 1.289 1.117l1.576 9.674a1.339 1.339 0 0 1-.292 1.084 1.292 1.292 0 0 1-1 .473zm10.235 2.168a3.584 3.584 0 0 0-.215.761l-.992 6.088-.992-6.088a3.585 3.585 0 0 0-.215-.761h2.413zm-14.818 26.383a1.292 1.292 0 0 1-1 .473H3.421a1.292 1.292 0 0 1-1-.473 1.338 1.338 0 0 1-.292-1.084l1.576-9.674A1.312 1.312 0 0 1 5 162.307h14.9a1.312 1.312 0 0 1 1.289 1.117l1.576 9.674a1.338 1.338 0 0 1-.292 1.085zm1.793-5.026l-.992-6.088a3.582 3.582 0 0 0-.215-.761h2.413a3.584 3.584 0 0 0-.215.761zm23.635 0l-.139-.853a1.06 1.06 0 0 0-1.217-.889 1.079 1.079 0 0 0-.869 1.245l.724 4.44a1.338 1.338 0 0 1-.292 1.084 1.292 1.292 0 0 1-1 .473H27.056a1.292 1.292 0 0 1-1-.473 1.338 1.338 0 0 1-.292-1.084l1.576-9.674a1.311 1.311 0 0 1 1.289-1.117h14.9a1.311 1.311 0 0 1 1.289 1.117l.065.4a1.06 1.06 0 0 0 1.216.889 1.079 1.079 0 0 0 .869-1.245l-.065-.4a3.582 3.582 0 0 0-.215-.761h2.413a3.592 3.592 0 0 0-.215.761zm21.842 5.025a1.292 1.292 0 0 1-1 .473H50.692a1.292 1.292 0 0 1-1-.473 1.338 1.338 0 0 1-.292-1.082l1.576-9.674a1.312 1.312 0 0 1 1.289-1.117h14.9a1.311 1.311 0 0 1 1.289 1.117l1.576 9.674a1.338 1.338 0 0 1-.286 1.083z" class="cls-2" data-name="Path 37" transform="translate(0 -58.658)"/>
        <path id="Path_38" d="M31.453 283.916h3.155a.941.941 0 1 0 0-1.882h-3.155a.941.941 0 1 0 0 1.882z" class="cls-2" data-name="Path 38" transform="translate(-26.684 -187.122)"/>
        <path id="Path_39" d="M441.331 282.975a.941.941 0 0 0 .941.941h3.155a.941.941 0 0 0 0-1.882h-3.155a.941.941 0 0 0-.941.941z" class="cls-2" data-name="Path 39" transform="translate(-378.028 -187.122)"/>
        <path id="Path_40" d="M249.439 69.085a.941.941 0 0 0 .941-.941v-3.155a.941.941 0 1 0-1.882 0v3.155a.941.941 0 0 0 .941.941z" class="cls-2" data-name="Path 40" transform="translate(-213.355)"/>
        <path id="Path_41" d="M96.865 131.733A.941.941 0 0 0 98.2 130.4l-2.231-2.231a.941.941 0 0 0-1.331 1.331z" class="cls-2" data-name="Path 41" transform="translate(-80.958 -54.755)"/>
        <path id="Path_42" d="M385.793 132.008a.938.938 0 0 0 .665-.276l2.231-2.231a.941.941 0 0 0-1.331-1.331l-2.231 2.231a.941.941 0 0 0 .665 1.606z" class="cls-2" data-name="Path 42" transform="translate(-330.197 -54.755)"/>
        <path id="Path_43" d="M148.54 110.1a.941.941 0 1 0 1.63-.941l-.526-.911a.941.941 0 1 0-1.63.941z" class="cls-2" data-name="Path 43" transform="translate(-126.953 -38.24)"/>
        <path id="Path_44" d="M415.621 183.361a.941.941 0 0 0 1.285.344l.911-.526a.941.941 0 0 0-.941-1.63l-.911.526a.941.941 0 0 0-.344 1.286z" class="cls-2" data-name="Path 44" transform="translate(-355.433 -100.735)"/>
        <path id="Path_45" d="M299.1 90.536a.94.94 0 0 0 1.152-.665l.272-1.016a.941.941 0 0 0-1.818-.487l-.272 1.016a.941.941 0 0 0 .666 1.152z" class="cls-2" data-name="Path 45" transform="translate(-256.183 -20.658)"/>
        <path id="Path_46" d="M54.832 231.8l1.016.272a.941.941 0 0 0 .487-1.818l-1.016-.272a.941.941 0 1 0-.487 1.818z" class="cls-2" data-name="Path 46" transform="translate(-47.343 -142.398)"/>
        <path id="Path_47" d="M345.384 110.439a.941.941 0 0 0 1.285-.344l.526-.911a.941.941 0 0 0-1.63-.941l-.526.911a.941.941 0 0 0 .345 1.285z" class="cls-2" data-name="Path 47" transform="translate(-296.088 -38.239)"/>
        <path id="Path_48" d="M74.708 183.18l.911.526a.941.941 0 1 0 .941-1.63l-.911-.526a.941.941 0 1 0-.941 1.63z" class="cls-2" data-name="Path 48" transform="translate(-64.924 -100.735)"/>
        <path id="Path_49" d="M196.721 89.871a.941.941 0 0 0 1.818-.487l-.272-1.016a.941.941 0 0 0-1.818.487z" class="cls-2" data-name="Path 49" transform="translate(-168.625 -20.659)"/>
        <path id="Path_50" d="M434.791 231.41a.94.94 0 0 0 1.152.665l1.016-.272a.941.941 0 1 0-.487-1.818l-1.016.272a.941.941 0 0 0-.665 1.153z" class="cls-2" data-name="Path 50" transform="translate(-372.28 -142.4)"/>
    </g>
</svg>
