<svg xmlns="http://www.w3.org/2000/svg" width="70.128" height="70.127" viewBox="0 0 70.128 70.127">
    <defs>
        <style>
            .cls-1{opacity:.2}.cls-2{fill:#7eae00}
        </style>
    </defs>
    <g id="report" class="cls-1" transform="rotate(14.98 7.384 56.25)">
        <path id="Path_14" d="M53.565 9.235H44.33V0H0v49.871a7.4 7.4 0 0 0 7.388 7.388h42.483a7.4 7.4 0 0 0 7.388-7.388V12.929a3.7 3.7 0 0 0-3.694-3.694zm-3.18 1.847a3.654 3.654 0 0 0-.514 1.847v26.783H44.33v-28.63zm-43 44.329a5.547 5.547 0 0 1-5.541-5.541V1.847h40.638v48.024a7.372 7.372 0 0 0 2.506 5.541zm48.024-5.541a5.541 5.541 0 0 1-11.082 0v-8.311h7.388v-28.63a1.847 1.847 0 0 1 3.694 0zm0 0" class="cls-2" data-name="Path 14"/>
        <path id="Path_15" d="M51.953 33.581h1.581v14.233h4.744v-7.907h1.582v7.907h4.74V35.953h1.581v11.86h4.749v-5.534h1.581v5.535h3.953v-1.582h-2.372V40.7h-4.744v5.535h-1.581V34.372h-4.744v11.86h-1.581v-7.907H56.7v7.907h-1.584V32h-4.744v14.232H48v1.581h3.953zm0 0" class="cls-2" data-name="Path 15" transform="translate(-43.256 -28.837)"/>
        <path id="Path_16" d="M40 256h7.116v1.581H40zm0 0" class="cls-2" data-name="Path 16" transform="translate(-36.047 -226.305)"/>
        <path id="Path_17" d="M128 256h7.116v1.581H128zm0 0" class="cls-2" data-name="Path 17" transform="translate(-112.863 -226.305)"/>
        <path id="Path_18" d="M40 384h7.116v1.581H40zm0 0" class="cls-2" data-name="Path 18" transform="translate(-36.047 -339.458)"/>
        <path id="Path_19" d="M128 384h7.116v1.581H128zm0 0" class="cls-2" data-name="Path 19" transform="translate(-112.863 -339.458)"/>
        <path id="Path_20" d="M40 288h7.116v1.581H40zm0 0" class="cls-2" data-name="Path 20" transform="translate(-36.047 -254.593)"/>
        <path id="Path_21" d="M128 288h7.116v1.581H128zm0 0" class="cls-2" data-name="Path 21" transform="translate(-112.863 -254.593)"/>
        <path id="Path_22" d="M40 224h15.814v1.581H40zm0 0" class="cls-2" data-name="Path 22" transform="translate(-36.047 -198.017)"/>
        <path id="Path_23" d="M40 320h15.814v1.581H40zm0 0" class="cls-2" data-name="Path 23" transform="translate(-36.047 -282.882)"/>
        <path id="Path_24" d="M216 256h5.535v1.581H216zm0 0" class="cls-2" data-name="Path 24" transform="translate(-190.608 -226.305)"/>
        <path id="Path_25" d="M288 256h5.535v1.581H288zm0 0" class="cls-2" data-name="Path 25" transform="translate(-254.144 -226.305)"/>
        <path id="Path_26" d="M216 224h12.651v1.581H216zm0 0" class="cls-2" data-name="Path 26" transform="translate(-189.817 -198.017)"/>
        <path id="Path_27" d="M216 288h12.651v1.581H216zm0 0" class="cls-2" data-name="Path 27" transform="translate(-189.817 -254.593)"/>
        <path id="Path_28" d="M40 352h15.814v1.581H40zm0 0" class="cls-2" data-name="Path 28" transform="translate(-36.047 -311.17)"/>
        <path id="Path_29" d="M40 416h15.814v1.581H40zm0 0" class="cls-2" data-name="Path 29" transform="translate(-36.047 -366.648)"/>
        <path id="Path_30" d="M245.139 329.581h-.4V328h-1.581v1.581h-.4a2.767 2.767 0 0 0 0 5.535h2.372a1.186 1.186 0 0 1 0 2.372h-2.372a1.187 1.187 0 0 1-1.186-1.186v-.4H240v.4a2.77 2.77 0 0 0 2.767 2.767h.4v1.581h1.581v-1.58h.4a2.767 2.767 0 0 0 0-5.535h-2.372a1.186 1.186 0 1 1 0-2.372h2.372a1.187 1.187 0 0 1 1.186 1.186v.4h1.581v-.4a2.77 2.77 0 0 0-2.776-2.768zm0 0" class="cls-2" data-name="Path 30" transform="translate(-211.528 -287.345)"/>
    </g>
</svg>
