<svg xmlns="http://www.w3.org/2000/svg" width="75.666" height="75.152" viewBox="0 0 75.666 75.152">
    <defs>
        <style>
            .cls-1{opacity:.2}.cls-2{fill:#f64a00}
        </style>
    </defs>
    <g id="money" class="cls-1" transform="rotate(14.98 19.284 61.63)">
        <g id="Group_1141" data-name="Group 1141" transform="translate(36.089 33.229)">
            <g id="Group_1140" data-name="Group 1140">
                <path id="Path_31" d="M305.173 265.168a2.391 2.391 0 1 1 2.734-2.366 1.243 1.243 0 0 0 2.485 0 4.945 4.945 0 0 0-3.977-4.712v-.646a1.243 1.243 0 1 0-2.486 0v.646a4.945 4.945 0 0 0-3.977 4.712 5.051 5.051 0 0 0 5.219 4.852 2.391 2.391 0 1 1-2.734 2.366 1.243 1.243 0 1 0-2.485 0 4.945 4.945 0 0 0 3.977 4.712v.537a1.243 1.243 0 1 0 2.486 0v-.537a4.945 4.945 0 0 0 3.977-4.712 5.051 5.051 0 0 0-5.219-4.852z" class="cls-2" data-name="Path 31" transform="translate(-299.954 -256.201)"/>
            </g>
        </g>
        <g id="Group_1143" data-name="Group 1143" transform="translate(46.018 28.931)">
            <g id="Group_1142" data-name="Group 1142">
                <path id="Path_32" d="M392.32 226.761a16.192 16.192 0 0 0-6.614-5.853 1.243 1.243 0 1 0-1.077 2.24 13.682 13.682 0 0 1 6.162 18.739 1.243 1.243 0 1 0 2.194 1.167 16.174 16.174 0 0 0-.665-16.293z" class="cls-2" data-name="Path 32" transform="translate(-383.924 -220.785)"/>
            </g>
        </g>
        <g id="Group_1145" data-name="Group 1145" transform="translate(41.927 27.891)">
            <g id="Group_1144" data-name="Group 1144">
                <path id="Path_33" d="M348.326 209h-.084a1.243 1.243 0 0 0 0 2.485h.078a1.243 1.243 0 0 0 .006-2.485z" class="cls-2" data-name="Path 33" transform="translate(-347 -209.001)"/>
            </g>
        </g>
        <g id="Group_1147" data-name="Group 1147" transform="translate(25.499 34.844)">
            <g id="Group_1146" data-name="Group 1146">
                <path id="Path_34" d="M222.243 293.277a13.682 13.682 0 0 1-6.162-18.74 1.243 1.243 0 0 0-2.194-1.167 16.163 16.163 0 0 0 7.279 22.147 1.243 1.243 0 1 0 1.077-2.24z" class="cls-2" data-name="Path 34" transform="translate(-212.002 -272.711)"/>
            </g>
        </g>
        <g id="Group_1149" data-name="Group 1149" transform="translate(38.227 56.752)">
            <g id="Group_1148" data-name="Group 1148">
                <path id="Path_35" d="M317.7 449h-.072a1.243 1.243 0 0 0-.011 2.486h.083a1.243 1.243 0 1 0 0-2.485z" class="cls-2" data-name="Path 35" transform="translate(-316.378 -448.999)"/>
            </g>
        </g>
        <g id="Group_1151" data-name="Group 1151" transform="translate(0 3)">
            <g id="Group_1150" data-name="Group 1150">
                <path id="Path_36" d="M46.863 23.826a5.553 5.553 0 0 0-.537-.988h3.149a5.564 5.564 0 0 0 0-11.129h-9.687A5.561 5.561 0 0 0 35.2 3H5.564a5.564 5.564 0 1 0 0 11.129h9.687a5.549 5.549 0 0 0 0 6.29H12.1a5.561 5.561 0 0 0-3.458 9.919 5.554 5.554 0 0 0 0 8.709 5.554 5.554 0 0 0 0 8.709 5.561 5.561 0 0 0 3.458 9.92h14.252a20.56 20.56 0 1 0 20.511-33.85zm2.612-9.7a3.145 3.145 0 0 1 0 6.29H19.838a3.145 3.145 0 1 1 0-6.29zM5.564 11.709a3.145 3.145 0 1 1 0-6.29H35.2a3.145 3.145 0 0 1 0 6.29zM12.1 22.838h29.633a3.143 3.143 0 0 1 1.372.316 20.749 20.749 0 0 0-1.735-.074 20.5 20.5 0 0 0-14.552 6.048H12.1a3.145 3.145 0 0 1 0-6.29zm0 8.709h12.651a20.506 20.506 0 0 0-3.109 6.29H12.1a3.145 3.145 0 0 1 0-6.29zm0 8.709h8.99a20.58 20.58 0 0 0-.075 6.29H12.1a3.145 3.145 0 0 1 0-6.29zm0 15a3.145 3.145 0 1 1 0-6.29h9.409a20.483 20.483 0 0 0 2.9 6.29zm29.27 6.533a18.145 18.145 0 1 1 18.145-18.145A18.165 18.165 0 0 1 41.37 61.789z" class="cls-2" data-name="Path 36" transform="translate(0 -3)"/>
            </g>
        </g>
    </g>
</svg>
