<svg xmlns="http://www.w3.org/2000/svg" width="15.353" height="73" viewBox="0 0 15.353 73">
    <defs>
        <style>
            .cls-1{fill:#e2241b}
        </style>
    </defs>
    <path id="error" d="M67.576 55.7q-.694-14.36-.693-20.306c0-4.068 3.679-6.042 7.731-6.042 3.714 0 6.83 2.15 6.83 6.042q0 5.943-.3 20.306t-.3 20.206c0 3.006-3.591 4.359-6.236 4.359q-6.344 0-6.343-4.359 0-5.843-.694-20.206zm14.363 39.029a7.512 7.512 0 0 1-7.218 7.627 7.922 7.922 0 0 1-8.135-7.627c0-4.125 3.331-7.627 8.135-7.627a7.515 7.515 0 0 1 7.218 7.627zm0 0" class="cls-1" transform="translate(-66.586 -29.355)"/>
</svg>
