<svg xmlns="http://www.w3.org/2000/svg" width="37" height="37" viewBox="0 0 37 37">
    <defs>
        <style>
            .cls-1{fill:none}.cls-2{fill:#0f1211}.cls-3{fill:#fff}.cls-4{filter:url(#BG)}
        </style>
        <filter id="BG" width="37" height="37" x="0" y="0" filterUnits="userSpaceOnUse">
            <feOffset dy="1"/>
            <feGaussianBlur result="blur" stdDeviation="1.5"/>
            <feFlood flood-color="#0f1211" flood-opacity=".102"/>
            <feComposite in2="blur" operator="in"/>
            <feComposite in="SourceGraphic"/>
        </filter>
    </defs>
    <g id="Filter" transform="translate(4.5 3.5)">
        <g id="BG-2" data-name="BG">
            <g class="cls-4" transform="translate(-4.5 -3.5)">
                <rect id="BG-3" width="28" height="28" class="cls-1" data-name="BG" rx="14" transform="translate(4.5 3.5)"/>
            </g>
            <rect id="BG-4" width="28" height="28" class="cls-2" data-name="BG" rx="14"/>
        </g>
        <g id="settings_3_" data-name="settings (3)" transform="translate(5 4.998)">
            <g id="Group_1393" data-name="Group 1393" transform="translate(0 .001)">
                <path id="Path_118" d="M17.079 7.111L15.815 6.9a7.134 7.134 0 0 0-.508-1.226l.745-1.042a1.109 1.109 0 0 0-.12-1.433l-1.121-1.122a1.1 1.1 0 0 0-.786-.327 1.093 1.093 0 0 0-.643.207l-1.045.743a7.06 7.06 0 0 0-1.271-.523L10.856.93A1.111 1.111 0 0 0 9.758 0H8.175a1.111 1.111 0 0 0-1.1.929l-.216 1.279a6.958 6.958 0 0 0-1.222.515L4.6 1.979a1.111 1.111 0 0 0-1.43.121L2.046 3.22a1.113 1.113 0 0 0-.12 1.433l.752 1.057a6.968 6.968 0 0 0-.5 1.23l-1.249.209A1.111 1.111 0 0 0 0 8.247V9.83a1.111 1.111 0 0 0 .929 1.1l1.278.218a6.958 6.958 0 0 0 .515 1.222l-.74 1.03a1.109 1.109 0 0 0 .12 1.433l1.121 1.121a1.1 1.1 0 0 0 .786.327 1.093 1.093 0 0 0 .643-.207l1.057-.752a7.113 7.113 0 0 0 1.188.489l.211 1.263A1.111 1.111 0 0 0 8.2 18h1.591a1.111 1.111 0 0 0 1.1-.929l.214-1.263a7.133 7.133 0 0 0 1.225-.508l1.042.745a1.1 1.1 0 0 0 .647.207 1.1 1.1 0 0 0 .786-.327l1.119-1.125a1.113 1.113 0 0 0 .12-1.433l-.744-1.04a7.083 7.083 0 0 0 .508-1.226l1.263-.211A1.111 1.111 0 0 0 18 9.793V8.209a1.1 1.1 0 0 0-.921-1.098zm-.086 2.681a.1.1 0 0 1-.083.1l-1.579.263a.5.5 0 0 0-.406.372 6.019 6.019 0 0 1-.655 1.573.508.508 0 0 0 .023.553l.929 1.309a.1.1 0 0 1-.011.128l-1.121 1.121a.1.1 0 0 1-.071.03.092.092 0 0 1-.056-.019l-1.3-.929a.508.508 0 0 0-.553-.023 6.02 6.02 0 0 1-1.576.654.5.5 0 0 0-.372.406l-.267 1.579a.1.1 0 0 1-.1.083H8.208a.1.1 0 0 1-.1-.083l-.263-1.579a.5.5 0 0 0-.372-.406 6.25 6.25 0 0 1-1.542-.632.52.52 0 0 0-.256-.068.5.5 0 0 0-.293.094l-1.316.936a.112.112 0 0 1-.056.019.1.1 0 0 1-.071-.03L2.82 14.124A.1.1 0 0 1 2.809 14l.925-1.3a.515.515 0 0 0 .023-.557 5.963 5.963 0 0 1-.662-1.572.515.515 0 0 0-.406-.372L1.1 9.928a.1.1 0 0 1-.083-.1V8.247a.1.1 0 0 1 .083-.1l1.568-.263a.508.508 0 0 0 .41-.376 6.013 6.013 0 0 1 .643-1.579.5.5 0 0 0-.026-.549l-.939-1.314a.1.1 0 0 1 .011-.128l1.121-1.121a.1.1 0 0 1 .071-.03.092.092 0 0 1 .056.019l1.3.925a.515.515 0 0 0 .557.023 5.963 5.963 0 0 1 1.572-.662.515.515 0 0 0 .372-.406L8.084 1.1a.1.1 0 0 1 .1-.083h1.581a.1.1 0 0 1 .1.083l.263 1.568a.508.508 0 0 0 .376.41 6.1 6.1 0 0 1 1.613.662.508.508 0 0 0 .553-.023l1.3-.933a.112.112 0 0 1 .056-.019.1.1 0 0 1 .071.03l1.121 1.121a.1.1 0 0 1 .011.128l-.929 1.3a.508.508 0 0 0-.023.553 6.019 6.019 0 0 1 .654 1.576.5.5 0 0 0 .406.372l1.579.267a.1.1 0 0 1 .083.1v1.581z" class="cls-3" data-name="Path 118" transform="translate(0 -.001)"/>
                <path id="Path_119" d="M140.022 136a3.922 3.922 0 1 0 3.922 3.922 3.925 3.925 0 0 0-3.922-3.922zm0 6.819a2.9 2.9 0 1 1 2.9-2.9 2.9 2.9 0 0 1-2.9 2.901z" class="cls-3" data-name="Path 119" transform="translate(-131.02 -130.925)"/>
            </g>
        </g>
    </g>
</svg>
