<svg xmlns="http://www.w3.org/2000/svg" width="26.902" height="26.902" viewBox="0 0 26.902 26.902">
    <defs>
        <style>
            .cls-1{fill:rgba(255,179,0,.1)}.cls-2{fill:#c8951f}
        </style>
    </defs>
    <g id="Group_1154" data-name="Group 1154" transform="translate(-326 -175)">
        <circle id="Ellipse_1104" cx="13.451" cy="13.451" r="13.451" class="cls-1" data-name="Ellipse 1104" transform="translate(326 175)"/>
        <g id="gold-bars" transform="translate(332.208 182.758)">
            <path id="Path_37" d="M14.393 139.428l-.314-1.931a.685.685 0 0 0-.673-.584h-1.414a.712.712 0 0 0 .043-.382l-.315-1.931a.685.685 0 0 0-.673-.584H9.634a.712.712 0 0 0 .043-.382l-.315-1.934a.685.685 0 0 0-.673-.584H5.714a.685.685 0 0 0-.673.584l-.314 1.931a.712.712 0 0 0 .043.382H3.356a.685.685 0 0 0-.673.584l-.013.079a.215.215 0 0 0 .173.248.212.212 0 0 0 .243-.177l.013-.079a.262.262 0 0 1 .257-.223H6.33a.262.262 0 0 1 .257.223L6.9 136.6a.271.271 0 0 1-.058.216.254.254 0 0 1-.2.094h-3.6a.254.254 0 0 1-.2-.094.271.271 0 0 1-.058-.216l.144-.886a.215.215 0 0 0-.173-.248.212.212 0 0 0-.243.177l-.144.886a.713.713 0 0 0 .043.382H1a.685.685 0 0 0-.673.584l-.314 1.931a.709.709 0 0 0 .152.566.675.675 0 0 0 .521.247h3.6a.675.675 0 0 0 .521-.247.43.43 0 0 0 .036-.048.75.75 0 0 0 .036.048.675.675 0 0 0 .521.247H9a.675.675 0 0 0 .521-.247.43.43 0 0 0 .036-.048.75.75 0 0 0 .036.048.675.675 0 0 0 .521.247h3.6a.675.675 0 0 0 .521-.247.709.709 0 0 0 .158-.564zm-3.093-4.756l.314 1.931a.271.271 0 0 1-.058.216.255.255 0 0 1-.2.094h-3.6a.254.254 0 0 1-.2-.094.271.271 0 0 1-.056-.219l.314-1.931a.262.262 0 0 1 .257-.223h2.974a.262.262 0 0 1 .255.226zm-5.9-.655a.258.258 0 0 1-.2-.094.267.267 0 0 1-.058-.216l.314-1.931a.262.262 0 0 1 .257-.223h2.975a.262.262 0 0 1 .257.223l.314 1.931a.267.267 0 0 1-.058.216.258.258 0 0 1-.2.094zm2.042.432a.715.715 0 0 0-.043.152l-.2 1.215L7 134.6a.715.715 0 0 0-.043-.152h.482zm-2.957 5.266a.258.258 0 0 1-.2.094H.683a.258.258 0 0 1-.2-.094.267.267 0 0 1-.058-.216l.314-1.931a.262.262 0 0 1 .261-.223h2.972a.262.262 0 0 1 .257.223l.314 1.931a.267.267 0 0 1-.058.216zm.358-1l-.2-1.215a.714.714 0 0 0-.043-.152h.482a.715.715 0 0 0-.043.152zm4.717 0l-.028-.17a.212.212 0 0 0-.243-.177.215.215 0 0 0-.173.248l.144.886a.267.267 0 0 1-.058.216.258.258 0 0 1-.2.094H5.4a.258.258 0 0 1-.2-.094.267.267 0 0 1-.058-.216l.314-1.931a.262.262 0 0 1 .257-.223h2.975a.262.262 0 0 1 .257.223l.013.079a.211.211 0 0 0 .243.177.215.215 0 0 0 .173-.248l-.013-.079a.714.714 0 0 0-.043-.152H9.8a.717.717 0 0 0-.043.152zm4.359 1a.258.258 0 0 1-.2.094h-3.6a.258.258 0 0 1-.2-.094.267.267 0 0 1-.058-.216l.314-1.931a.262.262 0 0 1 .257-.223h2.974a.262.262 0 0 1 .257.223l.314 1.931a.267.267 0 0 1-.058.216z" class="cls-2" data-name="Path 37" transform="translate(0 -129.442)"/>
            <path id="Path_38" d="M30.7 282.41h.63a.188.188 0 0 0 0-.376h-.63a.188.188 0 0 0 0 .376z" class="cls-2" data-name="Path 38" transform="translate(-29.748 -275.874)"/>
            <path id="Path_39" d="M441.331 282.222a.188.188 0 0 0 .188.188h.63a.188.188 0 1 0 0-.376h-.63a.188.188 0 0 0-.188.188z" class="cls-2" data-name="Path 39" transform="translate(-428.698 -275.874)"/>
            <path id="Path_40" d="M248.686 65.053a.188.188 0 0 0 .188-.188v-.63a.188.188 0 0 0-.376 0v.63a.188.188 0 0 0 .188.188z" class="cls-2" data-name="Path 40" transform="translate(-241.484 -64.048)"/>
            <path id="Path_41" d="M94.859 128.661a.188.188 0 1 0 .266-.266l-.445-.445a.188.188 0 1 0-.266.266z" class="cls-2" data-name="Path 41" transform="translate(-91.684 -126.081)"/>
            <path id="Path_42" d="M385.04 128.716a.187.187 0 0 0 .133-.055l.445-.445a.188.188 0 0 0-.266-.266l-.445.445a.188.188 0 0 0 .133.321z" class="cls-2" data-name="Path 42" transform="translate(-373.945 -126.081)"/>
            <path id="Path_43" d="M148.018 108.237a.188.188 0 0 0 .325-.188l-.1-.182a.188.188 0 1 0-.325.188z" class="cls-2" data-name="Path 43" transform="translate(-143.71 -106.679)"/>
            <path id="Path_44" d="M415.52 181.81a.188.188 0 0 0 .256.069l.182-.1a.188.188 0 0 0-.188-.325l-.182.1a.188.188 0 0 0-.068.256z" class="cls-2" data-name="Path 44" transform="translate(-403.508 -178.103)"/>
            <path id="Path_45" d="M298.544 88.242a.188.188 0 0 0 .23-.133l.054-.2a.188.188 0 1 0-.363-.1l-.054.2a.188.188 0 0 0 .133.233z" class="cls-2" data-name="Path 45" transform="translate(-289.978 -87.078)"/>
            <path id="Path_46" d="M54.273 230.321l.2.054a.188.188 0 1 0 .1-.363l-.2-.054a.188.188 0 1 0-.1.363z" class="cls-2" data-name="Path 46" transform="translate(-52.779 -225.261)"/>
            <path id="Path_47" d="M345.007 108.3a.188.188 0 0 0 .257-.069l.1-.182a.188.188 0 1 0-.325-.188l-.1.182a.188.188 0 0 0 .068.257z" class="cls-2" data-name="Path 47" transform="translate(-335.169 -106.677)"/>
            <path id="Path_48" d="M74.331 181.774l.182.1a.188.188 0 1 0 .188-.325l-.182-.1a.188.188 0 1 0-.188.325z" class="cls-2" data-name="Path 48" transform="translate(-72.378 -178.103)"/>
            <path id="Path_49" d="M196.478 88.11a.188.188 0 0 0 .363-.1l-.054-.2a.188.188 0 0 0-.363.1z" class="cls-2" data-name="Path 49" transform="translate(-190.871 -87.079)"/>
            <path id="Path_50" d="M434.765 230.244a.188.188 0 0 0 .23.133l.2-.054a.188.188 0 0 0-.1-.363l-.2.054a.188.188 0 0 0-.13.23z" class="cls-2" data-name="Path 50" transform="translate(-422.29 -225.262)"/>
        </g>
    </g>
</svg>
