<svg xmlns="http://www.w3.org/2000/svg" width="16" height="16" viewBox="0 0 16 16">
    <defs>
        <style>
            .cls-1{fill:#0f1211}
        </style>
    </defs>
    <path id="User" d="M15.111 16a.883.883 0 0 1-.889-.875v-1.75a2.649 2.649 0 0 0-2.666-2.625H4.444a2.649 2.649 0 0 0-2.667 2.625v1.751A.883.883 0 0 1 .889 16 .883.883 0 0 1 0 15.125v-1.75A4.415 4.415 0 0 1 4.444 9h7.112A4.415 4.415 0 0 1 16 13.375v1.751a.883.883 0 0 1-.889.874zM8 8a4 4 0 1 1 4-4 4.005 4.005 0 0 1-4 4zm0-6.4A2.4 2.4 0 1 0 10.4 4 2.4 2.4 0 0 0 8 1.6z" class="cls-1"/>
</svg>
