<svg xmlns="http://www.w3.org/2000/svg" width="16" height="10.193" viewBox="0 0 16 10.193">
    <path d="M15.9 4.786C15.757 4.586 12.351 0 8 0S.244 4.59.1 4.786a.528.528 0 0 0 0 .622c.143.2 3.549 4.786 7.9 4.786s7.755-4.59 7.9-4.786a.527.527 0 0 0 0-.622zM8 9.139c-3.2 0-5.979-3.047-6.8-4.043.82-1 3.59-4.042 6.8-4.042s5.979 3.046 6.8 4.043c-.82.997-3.589 4.042-6.8 4.042z" data-name="Path 136"/>
    <g data-name="Group 1461">
        <path d="M7.999 1.933a3.164 3.164 0 1 0 3.164 3.164 3.167 3.167 0 0 0-3.164-3.164zm0 5.273a2.109 2.109 0 1 1 2.109-2.109 2.111 2.111 0 0 1-2.109 2.111z" data-name="Path 137"/>
        <path d="M7.999 3.662a1.434 1.434 0 1 0 1.434 1.434 1.436 1.436 0 0 0-1.434-1.434z" data-name="Path 138"/>
    </g>
</svg>
